<?xml version="1.0" encoding="utf-8"?>
<!-- Generator: Adobe Illustrator 16.0.0, SVG Export Plug-In . SVG Version: 6.00 Build 0)  -->
<!DOCTYPE svg PUBLIC "-//W3C//DTD SVG 1.1//EN" "http://www.w3.org/Graphics/SVG/1.1/DTD/svg11.dtd">
<svg version="1.1" id="Layer_1" xmlns="http://www.w3.org/2000/svg" xmlns:xlink="http://www.w3.org/1999/xlink" x="0px" y="0px"
	 width="496.604px" height="358.756px" viewBox="0 0 496.604 358.756" enable-background="new 0 0 496.604 358.756"
	 xml:space="preserve">
<g>
	<defs>
		<rect id="SVGID_1_" width="496.604" height="358.756"/>
	</defs>
	<clipPath id="SVGID_2_">
		<use xlink:href="#SVGID_1_"  overflow="visible"/>
	</clipPath>
	<polygon clip-path="url(#SVGID_2_)" fill="#EB1F37" points="61.998,167.078 147.136,167.079 147.136,167.078 	"/>
	<polyline clip-path="url(#SVGID_2_)" fill="#EB1F37" points="434.649,167.081 440.605,167.081 440.605,167.078 434.649,167.078 
		434.649,167.081 	"/>
	<path clip-path="url(#SVGID_2_)" fill="#EB1F37" d="M94.665,82.492c-9.055,13.03-16.542,27.222-22.179,42.293
		c-5.036,13.464-8.599,27.63-10.488,42.293h85.139h287.512h5.957c-1.89-14.663-5.445-28.829-10.471-42.293
		c-5.625-15.071-13.094-29.263-22.128-42.293C396.889,66.456,383.398,52.18,368.045,40.2C335.802,15.041,295.351,0,251.438,0
		c-43.914,0-84.42,15.041-116.725,40.2C119.33,52.18,105.81,66.456,94.665,82.492"/>
	<path clip-path="url(#SVGID_2_)" fill="#F99D1C" d="M159.365,124.785H72.486c-5.036,13.464-8.598,27.629-10.488,42.293h85.139
		C149.057,152.179,153.258,137.961,159.365,124.785"/>
	<path clip-path="url(#SVGID_2_)" fill="#F37021" d="M189.016,82.493H94.665c-9.054,13.03-16.541,27.221-22.179,42.293h86.879
		C166.698,108.964,176.789,94.656,189.016,82.493"/>
	<path clip-path="url(#SVGID_2_)" fill="#ED1B34" d="M430.135,124.785c-5.625-15.071-13.094-29.263-22.127-42.293
		C396.889,66.456,383.398,52.18,368.045,40.2C335.802,15.041,295.352,0,251.438,0c-43.914,0-84.42,15.041-116.725,40.2
		C119.33,52.18,105.81,66.456,94.665,82.492h94.351C215.24,56.406,251.281,40.2,290.997,40.2c39.715,0,75.693,16.206,101.864,42.292
		c12.2,12.163,22.267,26.473,29.583,42.293c6.093,13.175,10.284,27.394,12.204,42.293h5.957
		C438.716,152.415,435.16,138.249,430.135,124.785"/>
	<path clip-path="url(#SVGID_2_)" fill="#F99D1C" d="M392.86,82.493H189.015c-12.227,12.163-22.317,26.472-29.651,42.293h263.079
		C415.127,108.964,405.062,94.656,392.86,82.493"/>
	<path clip-path="url(#SVGID_2_)" fill="#FFDD00" d="M147.136,167.078h287.513c-1.92-14.899-6.113-29.117-12.206-42.293H159.364
		C153.257,137.961,149.056,152.179,147.136,167.078"/>
	<path clip-path="url(#SVGID_2_)" fill="#F37021" d="M290.996,40.2c-39.716,0-75.755,16.207-101.98,42.293H392.86
		C366.691,56.407,330.712,40.2,290.996,40.2"/>
	<path clip-path="url(#SVGID_2_)" fill="#FFFFFF" d="M155.771,216.221c0-7.587,8.142-10.92,19.06-10.92
		c8.889,0,20.365,2.592,28.507,5.736l5.723-22.688c-0.572-0.195-5.775-1.944-6.384-2.13c-9.246-2.819-22.503-4.612-31.362-4.612
		c-23.692,0-47.385,10.55-47.385,39.057c0,44.793,57.938,29.246,57.938,48.31c0,7.774-7.96,9.997-17.031,9.997
		c-11.106,0-26.468-4.074-37.021-9.997l-6.572,23.94c-0.293-0.111,3.848,2.014,6.928,3.314c12.072,5.103,27.317,6.99,39.998,6.99
		c23.504,0,45.351-10.924,45.351-38.688C213.521,219.925,155.771,234.175,155.771,216.221"/>
	<path clip-path="url(#SVGID_2_)" fill="#FFFFFF" d="M254.583,216.221c0-7.587,8.143-10.92,19.06-10.92
		c8.89,0,20.365,2.592,28.508,5.736l5.723-22.688c-0.572-0.195-5.775-1.944-6.384-2.13c-9.246-2.819-22.503-4.612-31.362-4.612
		c-23.692,0-47.385,10.55-47.385,39.057c0,44.793,57.938,29.246,57.938,48.31c0,7.774-7.96,9.997-17.031,9.997
		c-11.105,0-26.467-4.074-37.021-9.997l-6.572,23.94c-0.293-0.111,3.849,2.014,6.928,3.314c12.072,5.103,27.317,6.99,39.999,6.99
		c23.505,0,45.351-10.924,45.351-38.688C312.333,219.925,254.583,234.175,254.583,216.221"/>
	<polygon clip-path="url(#SVGID_2_)" fill="#FFFFFF" points="452.157,176.311 452.157,177.587 496.604,177.587 496.604,168.905 	"/>
	<path clip-path="url(#SVGID_2_)" fill="#FFFFFF" d="M335.325,183.829v22.768h11.288l-30.725,94.399h31.653l4.811-16.422h42.189
		l5.382,16.422h33.87l-42.2-117.167H335.325z M359.941,257.867l8.142-28.318c2.041-7.035,3.894-13.489,3.894-13.489
		s2.403,7.01,4.625,13.674l9.066,28.134l1.313,3.941H358.83L359.941,257.867z"/>
	<polygon clip-path="url(#SVGID_2_)" fill="#FFFFFF" points="440.523,183.83 440.523,206.597 451.999,206.597 451.999,278.229 
		440.523,278.229 440.523,300.996 496.604,300.996 496.604,283.833 496.604,278.229 484.394,278.229 484.394,206.597 
		496.604,206.597 496.604,204.015 496.604,183.83 	"/>
	<path clip-path="url(#SVGID_2_)" fill="#FFFFFF" d="M78.653,284.574l5.382,16.422h33.869L75.705,183.829H19.436v22.768h11.288
		L0,300.996h31.653l4.811-16.422H78.653z M44.052,257.867l8.142-28.318c2.04-7.035,3.894-13.489,3.894-13.489
		s2.403,7.01,4.625,13.674l9.066,28.134l1.313,3.941H42.941L44.052,257.867z"/>
	<path clip-path="url(#SVGID_2_)" fill="#FFFFFF" d="M85.564,326.584l-14.151,31.853h4.596l3.321-7.736h16.79l3.367,7.736h4.732
		l-14.105-31.853H85.564z M81.06,346.743l6.644-15.471l6.734,15.471H81.06z"/>
	<polygon clip-path="url(#SVGID_2_)" fill="#FFFFFF" points="110.17,330.591 120.409,330.591 120.409,358.436 124.776,358.436 
		124.776,330.591 135.06,330.591 135.06,326.585 110.17,326.585 	"/>
	<path clip-path="url(#SVGID_2_)" fill="#FFFFFF" d="M155.161,326.584l-14.151,31.853h4.596l3.321-7.736h16.79l3.367,7.736h4.732
		l-14.105-31.853H155.161z M150.656,346.743l6.644-15.471l6.734,15.471H150.656z"/>
	<path clip-path="url(#SVGID_2_)" fill="#FFFFFF" d="M204.593,353.637c-1.608,0.683-3.246,1.021-4.913,1.021
		c-2.247,0-4.308-0.545-6.189-1.639c-1.881-1.089-3.367-2.577-4.458-4.456c-1.093-1.883-1.638-3.928-1.638-6.143
		c0-2.245,0.545-4.3,1.638-6.166c1.091-1.866,2.577-3.344,4.458-4.438c1.881-1.093,3.942-1.638,6.189-1.638
		c1.698,0,3.35,0.356,4.959,1.07c1.608,0.711,3.017,1.706,4.231,2.979l2.594-3.139c-1.517-1.517-3.315-2.691-5.392-3.526
		c-2.078-0.833-4.225-1.25-6.438-1.25c-3.064,0-5.869,0.711-8.417,2.138c-2.548,1.426-4.558,3.376-6.029,5.846
		c-1.472,2.473-2.207,5.197-2.207,8.169c0,3.002,0.727,5.749,2.184,8.235c1.455,2.488,3.442,4.453,5.96,5.892
		c2.517,1.442,5.294,2.163,8.326,2.163c2.184,0,4.338-0.447,6.462-1.344c2.123-0.895,3.988-2.13,5.596-3.706l-2.639-2.868
		C207.627,352.021,206.201,352.952,204.593,353.637"/>
	<path clip-path="url(#SVGID_2_)" fill="#FFFFFF" d="M236.399,326.584l-14.152,31.853h4.596l3.321-7.736h16.79l3.367,7.736h4.731
		l-14.104-31.853H236.399z M231.893,346.743l6.644-15.471l6.734,15.471H231.893z"/>
	<path clip-path="url(#SVGID_2_)" fill="#FFFFFF" d="M289.543,328.656c-2.503-1.38-5.3-2.071-8.395-2.071H268.18v31.852h12.831
		c3.124,0,5.946-0.688,8.463-2.072c2.52-1.38,4.498-3.282,5.94-5.709c1.439-2.427,2.161-5.143,2.161-8.144
		c0-3.005-0.714-5.719-2.139-8.146C294.009,331.938,292.045,330.036,289.543,328.656 M291.546,348.652
		c-1.047,1.819-2.473,3.246-4.277,4.276c-1.806,1.034-3.815,1.551-6.028,1.551h-8.691v-23.935h8.508c2.245,0,4.285,0.522,6.12,1.57
		c1.836,1.047,3.284,2.479,4.347,4.299c1.06,1.821,1.592,3.866,1.592,6.144C293.115,344.802,292.591,346.835,291.546,348.652"/>
	<rect x="312.519" y="326.584" clip-path="url(#SVGID_2_)" fill="#FFFFFF" width="4.368" height="31.852"/>
	<path clip-path="url(#SVGID_2_)" fill="#FFFFFF" d="M350.817,342.192c-1.334-0.607-3.078-1.243-5.231-1.912
		c-1.73-0.545-3.08-1.024-4.051-1.432c-0.97-0.411-1.789-0.973-2.456-1.685c-0.668-0.711-1.002-1.631-1.002-2.753
		c0-1.243,0.553-2.222,1.661-2.933c1.106-0.714,2.585-1.07,4.436-1.07c1.335,0,2.798,0.235,4.393,0.705
		c1.592,0.469,3.13,1.174,4.617,2.117l1.82-3.915c-1.427-0.94-3.057-1.69-4.892-2.251c-1.835-0.562-3.708-0.842-5.619-0.842
		c-2.245,0-4.217,0.349-5.915,1.044c-1.7,0.697-3.021,1.699-3.959,3.005c-0.94,1.305-1.41,2.806-1.41,4.505
		c0,1.941,0.462,3.504,1.387,4.685c0.925,1.186,2.056,2.079,3.391,2.686c1.334,0.606,3.063,1.229,5.187,1.866
		c1.729,0.516,3.102,0.985,4.119,1.409c1.014,0.428,1.856,1.002,2.525,1.729c0.666,0.727,1,1.654,1,2.776
		c0,1.426-0.613,2.555-1.843,3.39s-2.904,1.253-5.028,1.253c-1.789,0-3.634-0.405-5.528-1.207c-1.896-0.803-3.602-1.948-5.119-3.436
		l-1.956,3.777c1.607,1.518,3.52,2.729,5.732,3.638c2.216,0.91,4.489,1.367,6.827,1.367c2.303,0,4.344-0.372,6.118-1.115
		c1.775-0.744,3.155-1.798,4.141-3.161c0.987-1.367,1.479-2.959,1.479-4.78c0-1.97-0.471-3.556-1.411-4.753
		C353.29,343.702,352.151,342.799,350.817,342.192"/>
	<polygon clip-path="url(#SVGID_2_)" fill="#FFFFFF" points="367.544,330.591 377.781,330.591 377.781,358.436 382.149,358.436 
		382.149,330.591 392.433,330.591 392.433,326.585 367.544,326.585 	"/>
	<path clip-path="url(#SVGID_2_)" fill="#FFFFFF" d="M412.535,326.584l-14.152,31.853h4.597l3.32-7.736h16.79l3.367,7.736h4.732
		l-14.105-31.853H412.535z M408.029,346.743l6.644-15.471l6.734,15.471H408.029z"/>
</g>
</svg>
